<svg height="64" preserveAspectRatio="xMinYMin meet" viewBox="0 0 64 64" width="64" xmlns="http://www.w3.org/2000/svg"><path d="m0 0h16v4h-4v8h-4v16h4v12h4v4h4v4h4v4h4v4h-4v4h-4v4h-20z" fill="#fff" fill-opacity="0"/><path d="m16 0h28v12h8v8h-4v-4h-8v-4h-4v-4h-8v4h-8v12h-4v-8h-4v-4h4z" fill="#dc643f"/><path d="m44 0h20v64h-12v-4h-4v-4h-4v-8h4v-4h4v-32h-4v-8h-4z" fill="#fff" fill-opacity="0"/><path d="m12 4h4v8h-4z" fill="#cd5323"/><path d="m44 4h4v8h-4z" fill="#cd5323"/><path d="m28 8h8v4h4v8h4v4h4v-4h4v24h-4v4h-4v12h-12v-8h-4v-4h-4v-4h-4v-4h-4v-8h-4v-4h4v-4h4v-4h4v4h4v-8h-8v-4h8z" fill="#f2d67d"/><path d="m8 12h4v8h-4z" fill="#cd5323"/><path d="m12 16h4v4h-4z" fill="#f2d67d"/><path d="m20 16h8v8h-4v-4h-4z"/><path d="m40 16h8v8h-4v-4h-4z"/><path d="m8 20h4v8h-4z" fill="#f2d67d"/><path d="m12 20h4v8h-4z" fill="#ebac26"/><path d="m36 24h4v4h-4z"/><path d="m40 28h4v4h-4z"/><path d="m12 32h4v8h-4z" fill="#cd5323"/><path d="m24 36h4v4h-4z"/><path d="m16 40h4v4h-4z" fill="#ebac26"/><path d="m28 40h16v4h-16z"/><g fill="#ebac26"><path d="m20 44h4v4h-4z"/><path d="m24 48h4v4h-4z"/><path d="m28 52h4v8h-4z"/></g><path d="m24 56h4v4h-4z" fill="#3f80b4"/><path d="m44 56h4v4h4v4h-32v-4h24z" fill="#4996d4"/></svg>
